<?xml version="1.0" encoding="UTF-8" standalone="no"?>
<!-- Created with Inkscape (http://www.inkscape.org/) -->

<svg
   xmlns:dc="http://purl.org/dc/elements/1.1/"
   xmlns:cc="http://creativecommons.org/ns#"
   xmlns:rdf="http://www.w3.org/1999/02/22-rdf-syntax-ns#"
   xmlns:svg="http://www.w3.org/2000/svg"
   xmlns="http://www.w3.org/2000/svg"
   xmlns:sodipodi="http://sodipodi.sourceforge.net/DTD/sodipodi-0.dtd"
   xmlns:inkscape="http://www.inkscape.org/namespaces/inkscape"
   width="210mm"
   height="297mm"
   viewBox="0 0 210 297"
   version="1.1"
   id="svg8"
   inkscape:version="0.92.1 r15371"
   sodipodi:docname="icones.svg">
  <defs
     id="defs2" />
  <sodipodi:namedview
     id="base"
     pagecolor="#ffffff"
     bordercolor="#666666"
     borderopacity="1.0"
     inkscape:pageopacity="0.0"
     inkscape:pageshadow="2"
     inkscape:zoom="1.4"
     inkscape:cx="17.939528"
     inkscape:cy="804.96208"
     inkscape:document-units="mm"
     inkscape:current-layer="layer1"
     showgrid="false"
     inkscape:window-width="1600"
     inkscape:window-height="848"
     inkscape:window-x="-8"
     inkscape:window-y="-8"
     inkscape:window-maximized="1" />
  <metadata
     id="metadata5">
    <rdf:RDF>
      <cc:Work
         rdf:about="">
        <dc:format>image/svg+xml</dc:format>
        <dc:type
           rdf:resource="http://purl.org/dc/dcmitype/StillImage" />
        <dc:title></dc:title>
      </cc:Work>
    </rdf:RDF>
  </metadata>
  <g
     inkscape:label="Camada 1"
     inkscape:groupmode="layer"
     id="layer1">
    <path
       style="fill:#000000;stroke-width:0.00551176"
       d="m 28.627576,44.826639 c -0.06338,-0.0072 -0.121277,-0.03263 -0.171578,-0.07508 -0.03854,-0.03249 -0.163983,-0.17165 -0.272584,-0.302181 -0.417481,-0.501841 -0.761258,-1.091925 -0.997632,-1.712459 -0.209058,-0.548778 -0.344167,-1.152131 -0.387956,-1.732382 -0.0029,-0.04245 -0.0072,-0.09081 -0.0087,-0.107562 -0.0014,-0.0166 -0.0058,-0.113047 -0.0087,-0.214096 -0.0101,-0.330567 0.0087,-0.685432 0.05299,-1.020531 0.167362,-1.249585 0.700937,-2.406523 1.531611,-3.320836 0.08764,-0.09644 0.273407,-0.283254 0.372291,-0.374341 0.523845,-0.482494 1.113568,-0.859868 1.77587,-1.136394 0.599959,-0.250494 1.239594,-0.404631 1.905996,-0.459307 0.310887,-0.02555 0.703262,-0.02555 1.014164,0 0.972366,0.07984 1.885985,0.371353 2.706264,0.863679 0.720717,0.432555 1.355024,1.0271 1.838963,1.723677 0.905635,1.303582 1.273551,2.952775 1.015925,4.553962 -0.190752,1.185553 -0.712907,2.273682 -1.51228,3.15148 -0.07493,0.08229 -0.105829,0.108572 -0.154817,0.131961 -0.05082,0.02411 -0.08359,0.03148 -0.140478,0.03148 -0.0745,-5.8e-5 -0.120555,-0.01299 -0.182017,-0.05327 -0.06829,-0.04418 -0.105395,-0.09471 -0.140767,-0.191402 -0.218732,-0.599338 -0.5549,-1.13069 -0.989388,-1.56388 -0.657336,-0.655371 -1.511428,-1.062125 -2.452566,-1.168012 -0.185149,-0.02078 -0.269624,-0.02512 -0.496051,-0.02512 -0.226441,0 -0.310917,0.0043 -0.496066,0.02512 -0.941138,0.105828 -1.795216,0.512641 -2.452565,1.168012 -0.434662,0.433363 -0.770556,0.964311 -0.989388,1.56388 -0.03523,0.09659 -0.07233,0.146976 -0.140768,0.191531 -0.04389,0.02859 -0.08923,0.04591 -0.130951,0.04995 -0.01732,0.0014 -0.03652,0.0043 -0.04259,0.0043 -0.0058,8.4e-4 -0.02715,-3.21e-4 -0.04692,-0.0029 z m -0.01444,-1.028457 c 0.359168,-0.686138 0.869137,-1.268094 1.514085,-1.727806 0.376334,-0.268252 0.820842,-0.497624 1.248589,-0.644312 l 0.08388,-0.02873 -0.07291,-0.04793 c -0.689792,-0.454124 -1.168244,-1.184659 -1.293404,-1.974864 -0.02367,-0.149475 -0.03003,-0.237573 -0.03003,-0.417511 0,-0.179951 0.0058,-0.268051 0.03003,-0.417524 0.144088,-0.909967 0.75118,-1.726838 1.598704,-2.151279 0.260196,-0.130228 0.536116,-0.219483 0.816468,-0.263893 0.149473,-0.02367 0.237572,-0.03003 0.417524,-0.03003 0.179937,0 0.268036,0.0058 0.41751,0.03003 0.280352,0.04447 0.556285,0.133549 0.816468,0.263893 0.847465,0.424411 1.454586,1.241371 1.598704,2.151279 0.02367,0.149473 0.03003,0.237573 0.03003,0.417524 0,0.179938 -0.0058,0.268036 -0.03003,0.417511 -0.125175,0.790176 -0.603613,1.52074 -1.293361,1.974835 l -0.07291,0.04793 0.09211,0.03176 c 0.416904,0.143654 0.854382,0.368609 1.221996,0.6283 0.653335,0.461531 1.169974,1.048569 1.53278,1.741638 0.03364,0.06425 0.04389,0.07984 0.04865,0.07363 0.342592,-0.447425 0.580713,-0.859694 0.777933,-1.346837 0.320112,-0.790682 0.448017,-1.644761 0.374341,-2.499589 -0.121566,-1.41019 -0.800485,-2.726363 -1.904134,-3.691293 -0.886173,-0.774801 -1.9864,-1.247997 -3.136191,-1.348874 -0.305748,-0.02685 -0.642277,-0.02685 -0.948024,0 -1.414393,0.124021 -2.727908,0.80255 -3.696751,1.90949 -0.383264,0.437897 -0.702858,0.946018 -0.929097,1.477167 -0.377489,0.886245 -0.512279,1.849112 -0.392331,2.802709 0.105252,0.837446 0.406957,1.640545 0.886015,2.359038 0.06511,0.0976 0.243839,0.344484 0.24944,0.344484 8.41e-4,0 0.02051,-0.03638 0.04375,-0.08071 z m 4.478338,-2.642031 c 0.476056,-0.0348 0.890244,-0.192368 1.242193,-0.472475 0.0859,-0.06829 0.25087,-0.233342 0.319218,-0.319218 0.312707,-0.392923 0.477918,-0.879474 0.477918,-1.407533 0,-0.52806 -0.165211,-1.014626 -0.477918,-1.407549 -0.06829,-0.0859 -0.233342,-0.25087 -0.319218,-0.319218 -0.393039,-0.312793 -0.87933,-0.477917 -1.407534,-0.477917 -0.528218,0 -1.01451,0.165124 -1.407548,0.477917 -0.0859,0.06829 -0.25087,0.233357 -0.319218,0.319218 -0.312793,0.393038 -0.477918,0.87933 -0.477918,1.407549 0,0.528204 0.165125,1.014495 0.477918,1.407533 0.06829,0.08591 0.233357,0.250871 0.319218,0.319218 0.348022,0.276974 0.766167,0.437305 1.231163,0.472056 0.08576,0.0058 0.25702,0.0072 0.341726,4.4e-4 z"
       id="path21"
       inkscape:connector-curvature="0"
       inkscape:export-xdpi="15"
       inkscape:export-ydpi="15" />
  </g>
</svg>
